<svg id="visual" viewBox="0 0 1920 1080" width="1920" height="1080" xmlns="http://www.w3.org/2000/svg" xmlns:xlink="http://www.w3.org/1999/xlink" version="1.1"><path d="M0 260L29.2 270.8C58.3 281.7 116.7 303.3 174.8 294.3C233 285.3 291 245.7 349.2 231.3C407.3 217 465.7 228 523.8 246C582 264 640 289 698.2 285.3C756.3 281.7 814.7 249.3 872.8 260.2C931 271 989 325 1047.2 366.3C1105.3 407.7 1163.7 436.3 1221.8 409.3C1280 382.3 1338 299.7 1396.2 274.5C1454.3 249.3 1512.7 281.7 1570.8 312.3C1629 343 1687 372 1745.2 386.5C1803.3 401 1861.7 401 1890.8 401L1920 401L1920 0L1890.8 0C1861.7 0 1803.3 0 1745.2 0C1687 0 1629 0 1570.8 0C1512.7 0 1454.3 0 1396.2 0C1338 0 1280 0 1221.8 0C1163.7 0 1105.3 0 1047.2 0C989 0 931 0 872.8 0C814.7 0 756.3 0 698.2 0C640 0 582 0 523.8 0C465.7 0 407.3 0 349.2 0C291 0 233 0 174.8 0C116.7 0 58.3 0 29.2 0L0 0Z" fill="#6198ff"></path><path d="M0 411L29.2 429C58.3 447 116.7 483 174.8 497.5C233 512 291 505 349.2 488.8C407.3 472.7 465.7 447.3 523.8 456.3C582 465.3 640 508.7 698.2 503.3C756.3 498 814.7 444 872.8 453C931 462 989 534 1047.2 593.3C1105.3 652.7 1163.7 699.3 1221.8 681.3C1280 663.3 1338 580.7 1396.2 535.7C1454.3 490.7 1512.7 483.3 1570.8 506.7C1629 530 1687 584 1745.2 598.5C1803.3 613 1861.7 588 1890.8 575.5L1920 563L1920 399L1890.8 399C1861.7 399 1803.3 399 1745.2 384.5C1687 370 1629 341 1570.8 310.3C1512.7 279.7 1454.3 247.3 1396.2 272.5C1338 297.7 1280 380.3 1221.8 407.3C1163.7 434.3 1105.3 405.7 1047.2 364.3C989 323 931 269 872.8 258.2C814.7 247.3 756.3 279.7 698.2 283.3C640 287 582 262 523.8 244C465.7 226 407.3 215 349.2 229.3C291 243.7 233 283.3 174.8 292.3C116.7 301.3 58.3 279.7 29.2 268.8L0 258Z" fill="#3c80ff"></path><path d="M0 552L29.2 562.8C58.3 573.7 116.7 595.3 174.8 604.3C233 613.3 291 609.7 349.2 591.7C407.3 573.7 465.7 541.3 523.8 559.3C582 577.3 640 645.7 698.2 652.8C756.3 660 814.7 606 872.8 609.5C931 613 989 674 1047.2 722.5C1105.3 771 1163.7 807 1221.8 801.7C1280 796.3 1338 749.7 1396.2 721C1454.3 692.3 1512.7 681.7 1570.8 690.7C1629 699.7 1687 728.3 1745.2 749.8C1803.3 771.3 1861.7 785.7 1890.8 792.8L1920 800L1920 561L1890.8 573.5C1861.7 586 1803.3 611 1745.2 596.5C1687 582 1629 528 1570.8 504.7C1512.7 481.3 1454.3 488.7 1396.2 533.7C1338 578.7 1280 661.3 1221.8 679.3C1163.7 697.3 1105.3 650.7 1047.2 591.3C989 532 931 460 872.8 451C814.7 442 756.3 496 698.2 501.3C640 506.7 582 463.3 523.8 454.3C465.7 445.3 407.3 470.7 349.2 486.8C291 503 233 510 174.8 495.5C116.7 481 58.3 445 29.2 427L0 409Z" fill="#0066ff"></path><path d="M0 627L29.2 645C58.3 663 116.7 699 174.8 722.5C233 746 291 757 349.2 739C407.3 721 465.7 674 523.8 690.2C582 706.3 640 785.7 698.2 794.7C756.3 803.7 814.7 742.3 872.8 751.3C931 760.3 989 839.7 1047.2 877.5C1105.3 915.3 1163.7 911.7 1221.8 886.5C1280 861.3 1338 814.7 1396.2 785.8C1454.3 757 1512.7 746 1570.8 764C1629 782 1687 829 1745.2 852.5C1803.3 876 1861.7 876 1890.8 876L1920 876L1920 798L1890.8 790.8C1861.7 783.7 1803.3 769.3 1745.2 747.8C1687 726.3 1629 697.7 1570.8 688.7C1512.7 679.7 1454.3 690.3 1396.2 719C1338 747.7 1280 794.3 1221.8 799.7C1163.7 805 1105.3 769 1047.2 720.5C989 672 931 611 872.8 607.5C814.7 604 756.3 658 698.2 650.8C640 643.7 582 575.3 523.8 557.3C465.7 539.3 407.3 571.7 349.2 589.7C291 607.7 233 611.3 174.8 602.3C116.7 593.3 58.3 571.7 29.2 560.8L0 550Z" fill="#0059dd"></path><path d="M0 1081L29.2 1081C58.3 1081 116.7 1081 174.8 1081C233 1081 291 1081 349.2 1081C407.3 1081 465.7 1081 523.8 1081C582 1081 640 1081 698.2 1081C756.3 1081 814.7 1081 872.8 1081C931 1081 989 1081 1047.2 1081C1105.3 1081 1163.7 1081 1221.8 1081C1280 1081 1338 1081 1396.2 1081C1454.3 1081 1512.7 1081 1570.8 1081C1629 1081 1687 1081 1745.2 1081C1803.3 1081 1861.7 1081 1890.8 1081L1920 1081L1920 874L1890.8 874C1861.7 874 1803.3 874 1745.2 850.5C1687 827 1629 780 1570.8 762C1512.7 744 1454.3 755 1396.2 783.8C1338 812.7 1280 859.3 1221.8 884.5C1163.7 909.7 1105.3 913.3 1047.2 875.5C989 837.7 931 758.3 872.8 749.3C814.7 740.3 756.3 801.7 698.2 792.7C640 783.7 582 704.3 523.8 688.2C465.7 672 407.3 719 349.2 737C291 755 233 744 174.8 720.5C116.7 697 58.3 661 29.2 643L0 625Z" fill="#004cbb"></path></svg>